HIERARCHY
ROOT hip
{
  OFFSET 0 0 0
  CHANNELS 6 Xposition Yposition Zposition Zrotation Yrotation Xrotation
  JOINT abdomen
  {
    OFFSET 0 20.6881 -0.73152
    CHANNELS 3 Zrotation Xrotation Yrotation
    JOINT chest
    {
      OFFSET 0 11.7043 -0.48768
      CHANNELS 3 Zrotation Xrotation Yrotation
      JOINT neck
      {
        OFFSET 0 22.1894 -2.19456
        CHANNELS 3 Zrotation Xrotation Yrotation
        JOINT head
        {
          OFFSET -0.24384 7.07133 1.2192
          CHANNELS 3 Zrotation Xrotation Yrotation
          JOINT leftEye
          {
            OFFSET 4.14528 8.04674 8.04672
            CHANNELS 3 Zrotation Xrotation Yrotation
            End Site
            {
              OFFSET 1 0 0
            }
          }
          JOINT rightEye
          {
            OFFSET -3.6576 8.04674 8.04672
            CHANNELS 3 Zrotation Xrotation Yrotation
            End Site
            {
              OFFSET 1 0 0
            }
          }
        }
      }
      JOINT rCollar
      {
        OFFSET -2.68224 19.2634 -4.8768
        CHANNELS 3 Zrotation Xrotation Yrotation
        JOINT rShldr
        {
          OFFSET -8.77824 -1.95073 1.46304
          CHANNELS 3 Zrotation Xrotation Yrotation
          JOINT rForeArm
          {
            OFFSET -28.1742 -1.7115 0.48768
            CHANNELS 3 Zrotation Xrotation Yrotation
            JOINT rHand
            {
              OFFSET -22.5879 0.773209 7.07136
              CHANNELS 3 Zrotation Xrotation Yrotation
              JOINT rThumb1
              {
                OFFSET -1.2192 -0.487915 3.41376
                CHANNELS 3 Zrotation Xrotation Yrotation
                JOINT rThumb2
                {
                  OFFSET -3.37035 -0.52449 3.41376
                  CHANNELS 3 Zrotation Xrotation Yrotation
                  End Site
                  {
                    OFFSET -1.78271 -1.18214 1.43049
                  }
                }
              }
              JOINT rIndex1
              {
                OFFSET -7.75947 0.938293 5.60832
                CHANNELS 3 Zrotation Xrotation Yrotation
                JOINT rIndex2
                {
                  OFFSET -2.54057 -0.884171 1.56538
                  CHANNELS 3 Zrotation Xrotation Yrotation
                  End Site
                  {
                    OFFSET -1.62519 -0.234802 1.16502
                  }
                }
              }
              JOINT rMid1
              {
                OFFSET -8.24714 1.18213 3.41376
                CHANNELS 3 Zrotation Xrotation Yrotation
                JOINT rMid2
                {
                  OFFSET -3.10165 -0.590103 1.0647
                  CHANNELS 3 Zrotation Xrotation Yrotation
                  End Site
                  {
                    OFFSET -2.48547 -0.328903 0.83742
                  }
                }
              }
              JOINT rRing1
              {
                OFFSET -8.82822 0.546677 1.51678
                CHANNELS 3 Zrotation Xrotation Yrotation
                JOINT rRing2
                {
                  OFFSET -2.60934 -0.819778 -0.0198488
                  CHANNELS 3 Zrotation Xrotation Yrotation
                  End Site
                  {
                    OFFSET -2.33842 -0.294052 0.168128
                  }
                }
              }
              JOINT rPinky1
              {
                OFFSET -8.27202 -0.0477905 -0.4584
                CHANNELS 3 Zrotation Xrotation Yrotation
                JOINT rPinky2
                {
                  OFFSET -1.82734 -0.647385 -0.700984
                  CHANNELS 3 Zrotation Xrotation Yrotation
                  End Site
                  {
                    OFFSET -1.69225 -0.51767 -0.607171
                  }
                }
              }
            }
          }
        }
      }
      JOINT lCollar
      {
        OFFSET 2.68224 19.2634 -4.8768
        CHANNELS 3 Zrotation Xrotation Yrotation
        JOINT lShldr
        {
          OFFSET 8.77824 -1.95073 1.46304
          CHANNELS 3 Zrotation Xrotation Yrotation
          JOINT lForeArm
          {
            OFFSET 28.1742 -1.7115 0.48768
            CHANNELS 3 Zrotation Xrotation Yrotation
            JOINT lHand
            {
              OFFSET 22.5879 0.773209 7.07136
              CHANNELS 3 Zrotation Xrotation Yrotation
              JOINT lThumb1
              {
                OFFSET 1.2192 -0.487915 3.41376
                CHANNELS 3 Zrotation Xrotation Yrotation
                JOINT lThumb2
                {
                  OFFSET 3.37035 -0.52449 3.41376
                  CHANNELS 3 Zrotation Xrotation Yrotation
                  End Site
                  {
                    OFFSET 1.78271 -1.18214 1.43049
                  }
                }
              }
              JOINT lIndex1
              {
                OFFSET 7.75947 0.938293 5.60832
                CHANNELS 3 Zrotation Xrotation Yrotation
                JOINT lIndex2
                {
                  OFFSET 2.54057 -0.884171 1.56538
                  CHANNELS 3 Zrotation Xrotation Yrotation
                  End Site
                  {
                    OFFSET 1.62519 -0.234802 1.16502
                  }
                }
              }
              JOINT lMid1
              {
                OFFSET 8.24714 1.18213 3.41376
                CHANNELS 3 Zrotation Xrotation Yrotation
                JOINT lMid2
                {
                  OFFSET 3.10165 -0.590103 1.0647
                  CHANNELS 3 Zrotation Xrotation Yrotation
                  End Site
                  {
                    OFFSET 2.48547 -0.328903 0.83742
                  }
                }
              }
              JOINT lRing1
              {
                OFFSET 8.82822 0.546677 1.51678
                CHANNELS 3 Zrotation Xrotation Yrotation
                JOINT lRing2
                {
                  OFFSET 2.60934 -0.819778 -0.0198488
                  CHANNELS 3 Zrotation Xrotation Yrotation
                  End Site
                  {
                    OFFSET 2.33842 -0.294052 0.168128
                  }
                }
              }
              JOINT lPinky1
              {
                OFFSET 8.27202 -0.0477905 -0.4584
                CHANNELS 3 Zrotation Xrotation Yrotation
                JOINT lPinky2
                {
                  OFFSET 1.82734 -0.647385 -0.700984
                  CHANNELS 3 Zrotation Xrotation Yrotation
                  End Site
                  {
                    OFFSET 1.69225 -0.51767 -0.607171
                  }
                }
              }
            }
          }
        }
      }
    }
  }
  JOINT rButtock
  {
    OFFSET -8.77824 4.35084 1.2192
    CHANNELS 3 Zrotation Xrotation Yrotation
    JOINT rThigh
    {
      OFFSET 0 -1.70687 -2.19456
      CHANNELS 3 Zrotation Xrotation Yrotation
      JOINT rShin
      {
        OFFSET 0 -36.8199 0.73152
        CHANNELS 3 Zrotation Xrotation Yrotation
        JOINT rFoot
        {
          OFFSET 0.73152 -45.1104 -5.12064
          CHANNELS 3 Zrotation Xrotation Yrotation
          End Site
          {
            OFFSET -1.1221 -3.69964 12.103
          }
        }
      }
    }
  }
  JOINT lButtock
  {
    OFFSET 8.77824 4.35084 1.2192
    CHANNELS 3 Zrotation Xrotation Yrotation
    JOINT lThigh
    {
      OFFSET 0 -1.70687 -2.19456
      CHANNELS 3 Zrotation Xrotation Yrotation
      JOINT lShin
      {
        OFFSET 0 -36.8199 0.73152
        CHANNELS 3 Zrotation Xrotation Yrotation
        JOINT lFoot
        {
          OFFSET -0.73152 -45.1104 -5.12064
          CHANNELS 3 Zrotation Xrotation Yrotation
          End Site
          {
            OFFSET 1.1221 -3.69964 12.103
          }
        }
      }
    }
  }
}
MOTION
Frames:	5
Frame Time:	0.03333
0.1968200085684657 58.60139727592468 -2.4066999554634094 5.8482208251953125 21.160491943359375 1.3640960454940796 -9.578201293945312 17.082292556762695 -0.8157104253768921 7.7491302490234375 -6.522158622741699 0.1443074643611908 -5.775279998779297 18.859296798706055 -8.516983985900879 9.99402141571045 -32.885406494140625 -14.308897972106934 -0.0 0.0 -0.0 -0.0 0.0 -0.0 -0.0 0.0 -0.0 20.871196746826172 -7.483741283416748 62.472293853759766 -17.213394165039062 -9.864727020263672 32.279296875 -0.040783192962408066 4.66475248336792 0.657568097114563 -0.0 0.0 -0.0 -0.0 0.0 -0.0 -0.0 0.0 -0.0 7.73087739944458 5.47489595413208 0.41732463240623474 -0.0 0.0 -0.0 2.9054994583129883 0.9650753736495972 0.10300876200199127 -0.0 0.0 -0.0 10.278595924377441 0.7317469120025635 0.026285577565431595 -0.0 0.0 -0.0 2.221662759780884 -0.7335850596427917 -0.20831839740276337 -0.0 0.0 -0.0 -106.86100006103516 60.52530288696289 40.72220993041992 28.066001892089844 -40.05089569091797 -84.01298522949219 8.554792404174805 -60.76258850097656 14.540821075439453 -0.0 0.0 -0.0 -0.0 0.0 -0.0 -0.0 0.0 -0.0 -7.73087739944458 5.47489595413208 -0.41732463240623474 -0.0 0.0 -0.0 -2.9054994583129883 0.9650753736495972 -0.10300876200199127 -0.0 0.0 -0.0 -10.278595924377441 0.7317469120025635 -0.026285577565431595 -0.0 0.0 -0.0 -2.221662759780884 -0.7335850596427917 0.20831839740276337 -0.0 0.0 -0.0 -19.355587005615234 -52.23439025878906 10.416203498840332 -0.2209826409816742 25.95489501953125 -0.12894009053707123 1.8680726289749146 5.716552257537842 -5.962430477142334 -0.0 0.0 -0.0 3.6093552112579346 -11.877094268798828 -4.613178253173828 0.9235973358154297 64.89739227294922 -3.37583065032959 6.981976509094238 -13.697669982910156 30.996906280517578
0.40655999910086393 58.74419808387756 -4.941399954259396 5.319388389587402 19.171201705932617 1.7966673374176025 -9.28768539428711 17.270090103149414 -0.8431878685951233 7.698421955108643 -7.057770252227783 0.16390037536621094 -5.652308940887451 18.1636905670166 -7.9306321144104 9.977578163146973 -32.84280014038086 -13.103297233581543 -0.0 0.0 -0.0 -0.0 0.0 -0.0 -0.0 0.0 -0.0 19.769006729125977 -6.365004539489746 62.89849853515625 -17.840410232543945 -10.516472816467285 33.6619987487793 -0.015243942849338055 3.5217220783233643 0.4958556890487671 -0.0 0.0 -0.0 -0.0 0.0 -0.0 -0.0 0.0 -0.0 7.73087739944458 5.47489595413208 0.41732463240623474 -0.0 0.0 -0.0 2.9054994583129883 0.9650753736495972 0.10300876200199127 -0.0 0.0 -0.0 10.278595924377441 0.7317469120025635 0.026285577565431595 -0.0 0.0 -0.0 2.221662759780884 -0.7335850596427917 -0.20831839740276337 -0.0 0.0 -0.0 -105.4959945678711 60.76837921142578 39.09409713745117 28.058204650878906 -40.09529495239258 -84.09309387207031 7.724926471710205 -59.10197067260742 13.582172393798828 -0.0 0.0 -0.0 -0.0 0.0 -0.0 -0.0 0.0 -0.0 -7.73087739944458 5.47489595413208 -0.41732463240623474 -0.0 0.0 -0.0 -2.9054994583129883 0.9650753736495972 -0.10300876200199127 -0.0 0.0 -0.0 -10.278595924377441 0.7317469120025635 -0.026285577565431595 -0.0 0.0 -0.0 -2.221662759780884 -0.7335850596427917 0.20831839740276337 -0.0 0.0 -0.0 -18.418092727661133 -54.789798736572266 5.133972644805908 -0.23991897702217102 26.89990234375 -0.16450807452201843 0.825342059135437 1.0867294073104858 -6.972323417663574 -0.0 0.0 -0.0 2.74375319480896 -14.081981658935547 -3.940192461013794 0.959621250629425 65.31391906738281 -3.391416311264038 7.678121089935303 -14.180401802062988 31.81719398498535
0.6513699889183044 58.71880054473877 -7.562699913978577 4.8455891609191895 16.72909927368164 2.2037360668182373 -9.403966903686523 17.740694046020508 -0.3022337555885315 7.454361438751221 -7.63259744644165 0.305318683385849 -5.5232954025268555 17.606685638427734 -7.3805108070373535 10.134406089782715 -33.23421096801758 -11.90080451965332 -0.0 0.0 -0.0 -0.0 0.0 -0.0 -0.0 0.0 -0.0 19.048301696777344 -5.564968585968018 63.526493072509766 -18.415300369262695 -11.1402006149292 34.958396911621094 -0.00719099398702383 2.4211835861206055 0.34028899669647217 -0.0 0.0 -0.0 -0.0 0.0 -0.0 -0.0 0.0 -0.0 7.73087739944458 5.47489595413208 0.41732463240623474 -0.0 0.0 -0.0 2.9054994583129883 0.9650753736495972 0.10300876200199127 -0.0 0.0 -0.0 10.278595924377441 0.7317469120025635 0.026285577565431595 -0.0 0.0 -0.0 2.221662759780884 -0.7335850596427917 -0.20831839740276337 -0.0 0.0 -0.0 -104.10999298095703 60.97139358520508 37.6013069152832 28.040904998779297 -40.194698333740234 -84.27029418945312 6.974484443664551 -57.41065979003906 12.699843406677246 -0.0 0.0 -0.0 -0.0 0.0 -0.0 -0.0 0.0 -0.0 -7.73087739944458 5.47489595413208 -0.41732463240623474 -0.0 0.0 -0.0 -2.9054994583129883 0.9650753736495972 -0.10300876200199127 -0.0 0.0 -0.0 -10.278595924377441 0.7317469120025635 -0.026285577565431595 -0.0 0.0 -0.0 -2.221662759780884 -0.7335850596427917 0.20831839740276337 -0.0 0.0 -0.0 -18.13438606262207 -57.99440383911133 -3.1020023822784424 -0.28127551078796387 30.70729637145996 -0.09005970507860184 -0.3893319070339203 -1.4028087854385376 -9.115694999694824 -0.0 0.0 -0.0 1.7706459760665894 -16.429203033447266 -3.201411485671997 1.0446584224700928 66.24140167236328 -3.4368181228637695 8.32022476196289 -14.639805793762207 32.31649398803711
0.939469994045794 58.54460000991821 -10.317699983716011 4.570217132568359 13.726088523864746 2.4923877716064453 -9.950056076049805 18.489212036132812 0.8138039112091064 7.021194934844971 -8.246359825134277 0.5711603760719299 -5.393725872039795 17.18939971923828 -6.86422872543335 10.497591972351074 -34.06380081176758 -10.685005187988281 -0.0 0.0 -0.0 -0.0 0.0 -0.0 -0.0 0.0 -0.0 18.711997985839844 -5.071181774139404 64.33200073242188 -18.942901611328125 -11.738800048828125 36.16800308227539 -0.0022821538150310516 1.3631469011306763 0.19183771312236786 -0.0 0.0 -0.0 -0.0 0.0 -0.0 -0.0 0.0 -0.0 7.73087739944458 5.47489595413208 0.41732463240623474 -0.0 0.0 -0.0 2.9054994583129883 0.9650753736495972 0.10300876200199127 -0.0 0.0 -0.0 10.278595924377441 0.7317469120025635 0.026285577565431595 -0.0 0.0 -0.0 2.221662759780884 -0.7335850596427917 -0.20831839740276337 -0.0 0.0 -0.0 -102.70997619628906 61.139991760253906 36.25139617919922 28.012794494628906 -40.34799575805664 -84.54669189453125 6.293975830078125 -55.68924331665039 11.88429069519043 -0.0 0.0 -0.0 -0.0 0.0 -0.0 -0.0 0.0 -0.0 -7.73087739944458 5.47489595413208 -0.41732463240623474 -0.0 0.0 -0.0 -2.9054994583129883 0.9650753736495972 -0.10300876200199127 -0.0 0.0 -0.0 -10.278595924377441 0.7317469120025635 -0.026285577565431595 -0.0 0.0 -0.0 -2.221662759780884 -0.7335850596427917 0.20831839740276337 -0.0 0.0 -0.0 -20.034534454345703 -61.197200775146484 -15.602837562561035 -0.3827250897884369 37.377017974853516 0.10857664048671722 -1.6824368238449097 -1.7582348585128784 -12.364190101623535 -0.0 0.0 -0.0 0.7051606178283691 -18.917892456054688 -2.390319347381592 1.1869630813598633 67.67989349365234 -3.520967721939087 8.89883804321289 -15.08389663696289 32.49259948730469
1.2548699975013733 58.30649733543396 -13.2277000695467 4.613612174987793 10.245393753051758 2.717949151992798 -11.169598579406738 19.204607009887695 2.5146279335021973 6.438080310821533 -8.952094078063965 0.9392459392547607 -5.288899898529053 16.83930206298828 -6.421932220458984 10.767691612243652 -34.623291015625 -9.657183647155762 -0.0 0.0 -0.0 -0.0 0.0 -0.0 -0.0 0.0 -0.0 18.60320281982422 -4.599833965301514 65.17780303955078 -19.36859893798828 -12.236485481262207 37.1719970703125 -0.01444766204804182 0.6097248792648315 0.08630732446908951 -0.0 0.0 -0.0 -0.0 0.0 -0.0 -0.0 0.0 -0.0 7.73087739944458 5.47489595413208 0.41732463240623474 -0.0 0.0 -0.0 2.9054994583129883 0.9650753736495972 0.10300876200199127 -0.0 0.0 -0.0 10.278595924377441 0.7317469120025635 0.026285577565431595 -0.0 0.0 -0.0 2.221662759780884 -0.7335850596427917 -0.20831839740276337 -0.0 0.0 -0.0 -101.72798156738281 61.421409606933594 35.34819412231445 27.988893508911133 -40.472103118896484 -84.77239990234375 5.767219543457031 -54.208805084228516 11.241324424743652 -0.0 0.0 -0.0 -0.0 0.0 -0.0 -0.0 0.0 -0.0 -7.73087739944458 5.47489595413208 -0.41732463240623474 -0.0 0.0 -0.0 -2.9054994583129883 0.9650753736495972 -0.10300876200199127 -0.0 0.0 -0.0 -10.278595924377441 0.7317469120025635 -0.026285577565431595 -0.0 0.0 -0.0 -2.221662759780884 -0.7335850596427917 0.20831839740276337 -0.0 0.0 -0.0 -21.304582595825195 -63.67880630493164 -23.674602508544922 -0.5542466640472412 46.30459976196289 0.4444921910762787 -2.6638927459716797 -2.1869640350341797 -14.760104179382324 -0.0 0.0 -0.0 -0.5312389731407166 -21.59319305419922 -0.9997071027755737 1.3695658445358276 69.14160919189453 -3.603177785873413 9.49924087524414 -15.344502449035645 32.83430099487305
